<svg xmlns="http://www.w3.org/2000/svg" xmlns:xlink="http://www.w3.org/1999/xlink" width="500" zoomAndPan="magnify" viewBox="0 0 375 374.999991" height="500" preserveAspectRatio="xMidYMid meet" version="1.0"><defs><clipPath id="2671c4edc7"><path d="M 112.5 141 L 262 141 L 262 233 L 112.5 233 Z M 112.5 141 " clip-rule="nonzero"/></clipPath><clipPath id="23179eae84"><path d="M 136.933594 142.171875 L 183.601562 142.171875 L 183.601562 204.644531 L 136.933594 204.644531 Z M 136.933594 142.171875 " clip-rule="nonzero"/></clipPath><clipPath id="272f867e81"><path d="M 132.488281 169 L 148 169 L 148 172 L 132.488281 172 Z M 132.488281 169 " clip-rule="nonzero"/></clipPath><clipPath id="8bfc87c066"><path d="M 177.457031 170.609375 L 192.214844 170.609375 L 192.214844 172.132812 L 177.457031 172.132812 Z M 177.457031 170.609375 " clip-rule="nonzero"/></clipPath></defs><g clip-path="url(#2671c4edc7)"><path fill="#c888db" d="M 112.664062 141.128906 C 118.761719 141.128906 124.65625 141.128906 130.796875 141.128906 C 130.796875 141.875 130.796875 142.546875 130.796875 143.214844 C 130.796875 161.074219 130.769531 178.933594 130.832031 196.789062 C 130.84375 199.167969 131.070312 201.601562 131.613281 203.914062 C 133.261719 210.964844 138.4375 215.285156 145.652344 216.203125 C 150.316406 216.792969 154.652344 215.953125 158.839844 213.964844 C 164.808594 211.128906 170.03125 207.171875 175.238281 203.183594 C 182.769531 197.417969 190.234375 191.554688 198.527344 186.875 C 205.210938 183.101562 212.230469 180.214844 219.875 179.179688 C 223.457031 178.695312 227.105469 178.75 230.691406 178.308594 C 234.898438 177.796875 238.445312 175.96875 239.925781 171.722656 C 241.433594 167.402344 241.164062 163.167969 237.953125 159.566406 C 235.738281 157.082031 232.730469 155.988281 229.519531 155.882812 C 223.5 155.6875 217.476562 155.78125 211.453125 155.714844 C 210.269531 155.703125 210.375 156.449219 210.375 157.210938 C 210.375 163.019531 210.320312 168.832031 210.410156 174.640625 C 210.4375 176.246094 209.992188 176.925781 208.410156 177.597656 C 203.574219 179.65625 198.886719 182.050781 194.144531 184.332031 C 193.574219 184.605469 193.042969 184.960938 192.246094 185.429688 C 192.199219 184.722656 192.140625 184.226562 192.140625 183.730469 C 192.128906 170.191406 192.128906 156.648438 192.125 143.109375 C 192.125 141.0625 192.136719 141.050781 194.230469 141.050781 C 206.28125 141.050781 218.324219 141.011719 230.375 141.0625 C 236.25 141.089844 241.925781 142.128906 247.242188 144.804688 C 262.097656 152.28125 261.9375 170.683594 254.035156 178.921875 C 252.71875 180.296875 251.199219 181.515625 249.613281 182.566406 C 248.027344 183.613281 246.242188 184.355469 244.40625 185.304688 C 244.792969 185.46875 245.128906 185.65625 245.484375 185.757812 C 255.824219 188.789062 262.382812 199.019531 261.324219 209.695312 C 260.210938 220.921875 252.390625 228.867188 239.953125 231.183594 C 237.296875 231.675781 234.554688 231.929688 231.851562 231.949219 C 219.21875 232.027344 206.585938 231.984375 193.949219 231.980469 C 193.425781 231.980469 192.90625 231.933594 192.136719 231.898438 C 192.136719 231.140625 192.136719 230.472656 192.136719 229.804688 C 192.136719 225.484375 192.113281 221.167969 192.164062 216.847656 C 192.167969 216.21875 192.347656 215.386719 192.765625 214.988281 C 197.734375 210.304688 202.804688 205.734375 208.773438 202.3125 C 209.175781 202.082031 209.609375 201.902344 210.328125 201.554688 C 210.328125 206.84375 210.328125 211.910156 210.328125 217.046875 C 210.984375 217.109375 211.394531 217.179688 211.804688 217.179688 C 217.722656 217.183594 223.640625 217.203125 229.558594 217.15625 C 230.828125 217.148438 232.113281 216.996094 233.363281 216.746094 C 239.222656 215.574219 242.679688 211.636719 242.910156 205.972656 C 243.160156 199.652344 240.066406 195.058594 234.199219 193.441406 C 228.765625 191.941406 223.308594 192.613281 217.925781 193.875 C 209.503906 195.84375 202.496094 200.433594 196.09375 206.039062 C 190.601562 210.851562 185.3125 215.898438 179.757812 220.628906 C 174.878906 224.777344 169.722656 228.605469 163.5 230.578125 C 152.6875 234.003906 141.9375 233.960938 131.488281 229.296875 C 121.203125 224.707031 115.398438 216.492188 113.390625 205.546875 C 112.910156 202.945312 112.707031 200.257812 112.699219 197.609375 C 112.640625 179.269531 112.667969 160.933594 112.664062 142.59375 C 112.664062 142.171875 112.664062 141.75 112.664062 141.128906 Z M 112.664062 141.128906 " fill-opacity="1" fill-rule="nonzero"/></g><g clip-path="url(#23179eae84)"><path fill="#8ec5cd" d="M 151.011719 173.230469 L 159.671875 173.414062 L 136.972656 204.644531 L 173.488281 169.117188 L 164.753906 168.894531 L 183.558594 142.183594 L 151.011719 173.230469 " fill-opacity="1" fill-rule="nonzero"/></g><path fill="#8ec5cd" d="M 152.394531 193.410156 C 152.339844 193.386719 152.285156 193.363281 152.230469 193.335938 C 151.972656 193.222656 151.675781 193.339844 151.5625 193.59375 L 149.871094 197.421875 C 149.757812 197.675781 149.875 197.972656 150.128906 198.085938 L 150.464844 198.234375 C 150.71875 198.347656 151.019531 198.230469 151.128906 197.976562 L 152.820312 194.148438 C 152.933594 193.894531 152.820312 193.597656 152.5625 193.484375 C 152.507812 193.460938 152.449219 193.4375 152.394531 193.410156 " fill-opacity="1" fill-rule="nonzero"/><path fill="#8ec5cd" d="M 170.785156 194.523438 L 172.316406 198.472656 C 172.414062 198.734375 172.707031 198.863281 172.964844 198.761719 L 173.3125 198.628906 C 173.570312 198.527344 173.699219 198.238281 173.597656 197.976562 L 172.070312 194.023438 C 171.96875 193.761719 171.671875 193.636719 171.410156 193.738281 C 171.300781 193.785156 171.1875 193.828125 171.078125 193.871094 C 170.816406 193.972656 170.683594 194.261719 170.785156 194.523438 " fill-opacity="1" fill-rule="nonzero"/><path fill="#8ec5cd" d="M 161.195312 186.25 L 161.101562 200.191406 C 161.101562 200.46875 161.320312 200.691406 161.597656 200.699219 L 161.964844 200.707031 C 162.246094 200.710938 162.476562 200.484375 162.480469 200.207031 L 162.574219 186.265625 C 162.574219 185.984375 162.351562 185.757812 162.074219 185.757812 C 161.953125 185.757812 161.832031 185.753906 161.714844 185.75 C 161.429688 185.746094 161.199219 185.96875 161.195312 186.25 " fill-opacity="1" fill-rule="nonzero"/><path fill="#8ec5cd" d="M 143.757812 187.800781 L 140.738281 190.707031 C 140.535156 190.898438 140.53125 191.21875 140.722656 191.417969 L 140.980469 191.6875 C 141.171875 191.886719 141.492188 191.894531 141.691406 191.699219 L 144.710938 188.792969 C 144.914062 188.601562 144.917969 188.28125 144.722656 188.078125 C 144.640625 187.992188 144.558594 187.90625 144.476562 187.820312 C 144.28125 187.613281 143.960938 187.605469 143.757812 187.800781 " fill-opacity="1" fill-rule="nonzero"/><path fill="#8ec5cd" d="M 179.242188 189.390625 L 182.214844 192.480469 C 182.410156 192.683594 182.726562 192.6875 182.929688 192.496094 L 183.195312 192.238281 C 183.394531 192.046875 183.402344 191.726562 183.207031 191.527344 L 180.234375 188.4375 C 180.039062 188.234375 179.714844 188.230469 179.515625 188.429688 C 179.429688 188.511719 179.34375 188.597656 179.257812 188.679688 C 179.058594 188.871094 179.050781 189.191406 179.242188 189.390625 " fill-opacity="1" fill-rule="nonzero"/><g clip-path="url(#272f867e81)"><path fill="#8ec5cd" d="M 147.214844 169.6875 L 133.027344 169.59375 C 132.753906 169.59375 132.527344 169.8125 132.519531 170.085938 L 132.515625 170.457031 C 132.507812 170.738281 132.734375 170.96875 133.015625 170.972656 L 147.199219 171.066406 C 147.476562 171.070312 147.703125 170.847656 147.707031 170.570312 C 147.710938 170.449219 147.710938 170.332031 147.714844 170.210938 C 147.726562 169.925781 147.5 169.691406 147.214844 169.6875 " fill-opacity="1" fill-rule="nonzero"/></g><path fill="#8ec5cd" d="M 138.699219 179.277344 L 134.746094 180.804688 C 134.484375 180.90625 134.355469 181.199219 134.457031 181.457031 L 134.589844 181.800781 C 134.691406 182.0625 134.984375 182.191406 135.242188 182.089844 L 139.191406 180.5625 C 139.453125 180.460938 139.582031 180.167969 139.480469 179.90625 C 139.4375 179.796875 139.394531 179.683594 139.351562 179.570312 C 139.253906 179.308594 138.960938 179.175781 138.699219 179.277344 " fill-opacity="1" fill-rule="nonzero"/><path fill="#8ec5cd" d="M 172.191406 148.621094 C 172.246094 148.648438 172.300781 148.671875 172.355469 148.699219 C 172.609375 148.8125 172.910156 148.695312 173.023438 148.441406 L 174.859375 144.289062 C 174.96875 144.035156 174.855469 143.738281 174.601562 143.625 L 174.261719 143.476562 C 174.007812 143.363281 173.710938 143.480469 173.597656 143.734375 L 171.761719 147.882812 C 171.652344 148.140625 171.765625 148.4375 172.023438 148.550781 C 172.078125 148.574219 172.132812 148.597656 172.191406 148.621094 " fill-opacity="1" fill-rule="nonzero"/><path fill="#8ec5cd" d="M 154.035156 147.421875 L 152.414062 143.238281 C 152.3125 142.976562 152.023438 142.847656 151.761719 142.949219 L 151.417969 143.082031 C 151.15625 143.183594 151.027344 143.472656 151.128906 143.734375 L 152.75 147.917969 C 152.847656 148.179688 153.140625 148.304688 153.402344 148.203125 C 153.515625 148.160156 153.625 148.117188 153.738281 148.078125 C 154 147.976562 154.136719 147.683594 154.035156 147.421875 " fill-opacity="1" fill-rule="nonzero"/><path fill="#8ec5cd" d="M 145.578125 152.417969 L 142.511719 149.226562 C 142.320312 149.027344 142 149.023438 141.800781 149.214844 L 141.535156 149.472656 C 141.332031 149.664062 141.328125 149.984375 141.519531 150.183594 L 144.585938 153.371094 C 144.777344 153.570312 145.097656 153.574219 145.300781 153.382812 C 145.386719 153.300781 145.472656 153.214844 145.558594 153.136719 C 145.765625 152.941406 145.777344 152.621094 145.578125 152.417969 " fill-opacity="1" fill-rule="nonzero"/><path fill="#8ec5cd" d="M 163.527344 157.652344 L 163.625 141.519531 C 163.628906 141.242188 163.40625 141.019531 163.132812 141.011719 L 162.761719 141.003906 C 162.480469 141 162.25 141.226562 162.25 141.503906 L 162.148438 157.636719 C 162.148438 157.914062 162.371094 158.140625 162.648438 158.144531 C 162.765625 158.148438 162.886719 158.148438 163.003906 158.152344 C 163.289062 158.160156 163.523438 157.9375 163.527344 157.652344 " fill-opacity="1" fill-rule="nonzero"/><path fill="#8ec5cd" d="M 139.230469 161.382812 C 139.484375 161.496094 139.78125 161.378906 139.894531 161.125 C 139.898438 161.125 139.898438 161.121094 139.898438 161.121094 C 139.945312 161.011719 139.996094 160.90625 140.042969 160.796875 C 140.160156 160.542969 140.046875 160.238281 139.789062 160.125 L 135.796875 158.363281 C 135.542969 158.25 135.246094 158.363281 135.132812 158.617188 L 134.984375 158.957031 C 134.871094 159.210938 134.988281 159.507812 135.242188 159.621094 L 139.230469 161.382812 " fill-opacity="1" fill-rule="nonzero"/><g clip-path="url(#8bfc87c066)"><path fill="#8ec5cd" d="M 177.960938 172.019531 L 191.699219 172.117188 C 191.976562 172.117188 192.203125 171.898438 192.207031 171.621094 L 192.214844 171.253906 C 192.21875 170.972656 191.996094 170.742188 191.714844 170.738281 L 177.972656 170.640625 C 177.695312 170.640625 177.46875 170.867188 177.464844 171.144531 C 177.464844 171.265625 177.464844 171.382812 177.460938 171.503906 C 177.457031 171.785156 177.679688 172.015625 177.960938 172.019531 " fill-opacity="1" fill-rule="nonzero"/></g><path fill="#8ec5cd" d="M 184.6875 180.914062 C 184.6875 180.917969 184.6875 180.917969 184.683594 180.917969 C 184.570312 181.175781 184.683594 181.472656 184.941406 181.585938 L 188.929688 183.347656 C 189.183594 183.460938 189.480469 183.347656 189.59375 183.09375 L 189.742188 182.753906 C 189.855469 182.5 189.742188 182.203125 189.488281 182.089844 L 185.496094 180.324219 C 185.238281 180.210938 184.9375 180.332031 184.828125 180.589844 C 184.78125 180.699219 184.734375 180.808594 184.6875 180.914062 " fill-opacity="1" fill-rule="nonzero"/><path fill="#8ec5cd" d="M 185.800781 162.523438 L 189.984375 160.90625 C 190.242188 160.804688 190.371094 160.511719 190.269531 160.253906 L 190.136719 159.910156 C 190.039062 159.648438 189.746094 159.519531 189.484375 159.621094 L 185.300781 161.242188 C 185.039062 161.34375 184.910156 161.636719 185.015625 161.898438 C 185.058594 162.011719 185.105469 162.121094 185.148438 162.234375 C 185.246094 162.496094 185.539062 162.625 185.800781 162.523438 " fill-opacity="1" fill-rule="nonzero"/><path fill="#8ec5cd" d="M 180.734375 154.136719 L 183.992188 151.003906 C 184.191406 150.8125 184.199219 150.492188 184.003906 150.292969 L 183.75 150.023438 C 183.554688 149.824219 183.238281 149.816406 183.035156 150.011719 L 179.777344 153.144531 C 179.578125 153.339844 179.574219 153.660156 179.769531 153.863281 C 179.855469 153.945312 179.9375 154.035156 180.019531 154.121094 C 180.210938 154.324219 180.53125 154.332031 180.734375 154.136719 " fill-opacity="1" fill-rule="nonzero"/></svg>